<svg width="100%" height="100%" id="svg" viewBox="0 0 1440 690" xmlns="http://www.w3.org/2000/svg" class="transition duration-300 ease-in-out delay-150"><path d="M 0,700 C 0,700 0,140 0,140 C 53.41822666173388,146.31347885065975 106.83645332346777,152.62695770131953 152,158 C 197.16354667653223,163.37304229868047 234.07241336786285,167.80564804538167 294,154 C 353.92758663213715,140.19435195461833 436.8738932050808,108.15045011715378 495,118 C 553.1261067949192,127.84954988284622 586.432013811814,179.5925514860032 633,189 C 679.567986188186,198.4074485139968 739.3980515476633,165.47934393883338 787,134 C 834.6019484523367,102.5206560611666 869.9757799975334,72.4900727586632 930,93 C 990.0242200024666,113.5099272413368 1074.6988284622025,184.56036502651378 1141,186 C 1207.3011715377975,187.43963497348622 1255.2289061536565,119.26846713528178 1302,100 C 1348.7710938463435,80.73153286471822 1394.3855469231717,110.36576643235911 1440,140 C 1440,140 1440,700 1440,700 Z" stroke="none" stroke-width="0" fill="#8ed1fc" fill-opacity="0.265" class="transition-all duration-300 ease-in-out delay-150 path-0"></path><path d="M 0,700 C 0,700 0,280 0,280 C 42.60683191515601,262.8948082377605 85.21366383031202,245.78961647552103 146,258 C 206.78633616968798,270.21038352447897 285.75217659390796,311.73634233567645 336,304 C 386.24782340609204,296.26365766432355 407.777629794056,239.26501418177335 455,233 C 502.222370205944,226.73498581822665 575.137304229868,271.20360093723025 630,289 C 684.862695770132,306.79639906276975 721.6731532864717,297.9205820693057 781,289 C 840.3268467135283,280.0794179306943 922.1700826242447,271.1140707855469 973,256 C 1023.8299173757553,240.88592921445306 1043.6465162165493,219.62313478850663 1090,234 C 1136.3534837834507,248.37686521149337 1209.2438525095574,298.39339006042667 1272,312 C 1334.7561474904426,325.60660993957333 1387.3780737452212,302.80330496978667 1440,280 C 1440,280 1440,700 1440,700 Z" stroke="none" stroke-width="0" fill="#8ed1fc" fill-opacity="0.4" class="transition-all duration-300 ease-in-out delay-150 path-1"></path><path d="M 0,700 C 0,700 0,420 0,420 C 62.21023554075718,431.75789863115057 124.42047108151436,443.51579726230113 184,431 C 243.57952891848564,418.48420273769887 300.5283512146997,381.694709581946 340,391 C 379.4716487853003,400.305290418054 401.4661240596869,455.70536440991486 457,454 C 512.5338759403131,452.29463559008514 601.6071525465533,393.4838327783944 669,378 C 736.3928474534467,362.5161672216056 782.1052657541004,390.3593044765076 817,399 C 851.8947342458996,407.6406955234924 875.9717844370452,397.0789493155753 930,393 C 984.0282155629548,388.9210506844247 1068.0075964977186,391.3248982611913 1126,408 C 1183.9924035022814,424.6751017388087 1215.9978295720803,455.6214576396596 1264,460 C 1312.0021704279197,464.3785423603404 1376.0010852139599,442.1892711801702 1440,420 C 1440,420 1440,700 1440,700 Z" stroke="none" stroke-width="0" fill="#8ed1fc" fill-opacity="0.53" class="transition-all duration-300 ease-in-out delay-150 path-2"></path><path d="M 0,700 C 0,700 0,560 0,560 C 65.78616352201259,537.3035886052535 131.57232704402517,514.6071772105068 176,508 C 220.42767295597483,501.39282278949315 243.4968553459119,510.8748797632262 290,532 C 336.5031446540881,553.1251202367738 406.44025157232704,585.8933037365888 463,587 C 519.559748427673,588.1066962634112 562.7421383647797,557.5519052904182 611,559 C 659.2578616352203,560.4480947095818 712.5911949685535,593.8990751017387 778,582 C 843.4088050314465,570.1009248982613 920.8930817610062,512.8517943026267 974,515 C 1027.1069182389938,517.1482056973733 1055.8364779874214,578.6937476877545 1104,598 C 1152.1635220125786,617.3062523122455 1219.761006289308,594.3732149463559 1279,581 C 1338.238993710692,567.6267850536441 1389.119496855346,563.8133925268221 1440,560 C 1440,560 1440,700 1440,700 Z" stroke="none" stroke-width="0" fill="#8ed1fc" fill-opacity="1" class="transition-all duration-300 ease-in-out delay-150 path-3"></path></svg>